<mxfile host="app.diagrams.net" modified="2024-03-20T22:58:46.651Z" agent="Mozilla/5.0 (Windows NT 10.0; Win64; x64) AppleWebKit/537.36 (KHTML, like Gecko) Chrome/122.0.0.0 Safari/537.36" etag="AHMzJXEUwHxz4eEVrAWm" version="24.0.7" type="device">
  <diagram name="Página-1" id="f1otHw1Q6vNYSI49RPSV">
    <mxGraphModel dx="192" dy="105" grid="1" gridSize="10" guides="1" tooltips="1" connect="1" arrows="1" fold="1" page="1" pageScale="1" pageWidth="1169" pageHeight="827" math="0" shadow="0">
      <root>
        <mxCell id="0" />
        <mxCell id="1" parent="0" />
        <mxCell id="2qCFXL-WmAPToWpVcpB8-9" style="edgeStyle=orthogonalEdgeStyle;rounded=0;orthogonalLoop=1;jettySize=auto;html=1;entryX=0;entryY=0.5;entryDx=0;entryDy=0;endArrow=none;endFill=0;" edge="1" parent="1" source="2qCFXL-WmAPToWpVcpB8-1" target="2qCFXL-WmAPToWpVcpB8-8">
          <mxGeometry relative="1" as="geometry" />
        </mxCell>
        <mxCell id="2qCFXL-WmAPToWpVcpB8-15" style="edgeStyle=orthogonalEdgeStyle;rounded=0;orthogonalLoop=1;jettySize=auto;html=1;entryX=0.5;entryY=0;entryDx=0;entryDy=0;endArrow=none;endFill=0;" edge="1" parent="1" source="2qCFXL-WmAPToWpVcpB8-5" target="2qCFXL-WmAPToWpVcpB8-13">
          <mxGeometry relative="1" as="geometry" />
        </mxCell>
        <mxCell id="2qCFXL-WmAPToWpVcpB8-6" value="ARMAZEM" style="rounded=0;whiteSpace=wrap;html=1;" vertex="1" parent="1">
          <mxGeometry x="710.05" y="522" width="120" height="30" as="geometry" />
        </mxCell>
        <mxCell id="2qCFXL-WmAPToWpVcpB8-12" style="edgeStyle=orthogonalEdgeStyle;rounded=0;orthogonalLoop=1;jettySize=auto;html=1;entryX=0;entryY=0.5;entryDx=0;entryDy=0;endArrow=none;endFill=0;" edge="1" parent="1" source="2qCFXL-WmAPToWpVcpB8-7" target="2qCFXL-WmAPToWpVcpB8-5">
          <mxGeometry relative="1" as="geometry">
            <mxPoint x="679.9992063492064" y="367.02857142857135" as="sourcePoint" />
          </mxGeometry>
        </mxCell>
        <mxCell id="2qCFXL-WmAPToWpVcpB8-7" value="CONTEM" style="rhombus;whiteSpace=wrap;html=1;" vertex="1" parent="1">
          <mxGeometry x="590" y="344.5" width="80" height="45" as="geometry" />
        </mxCell>
        <mxCell id="2qCFXL-WmAPToWpVcpB8-10" style="edgeStyle=orthogonalEdgeStyle;rounded=0;orthogonalLoop=1;jettySize=auto;html=1;entryX=0;entryY=0.5;entryDx=0;entryDy=0;endArrow=none;endFill=0;" edge="1" parent="1" source="2qCFXL-WmAPToWpVcpB8-8" target="2qCFXL-WmAPToWpVcpB8-4">
          <mxGeometry relative="1" as="geometry" />
        </mxCell>
        <mxCell id="2qCFXL-WmAPToWpVcpB8-8" value="REALIZA" style="rhombus;whiteSpace=wrap;html=1;" vertex="1" parent="1">
          <mxGeometry x="285" y="204.5" width="80" height="45" as="geometry" />
        </mxCell>
        <mxCell id="2qCFXL-WmAPToWpVcpB8-16" style="edgeStyle=orthogonalEdgeStyle;rounded=0;orthogonalLoop=1;jettySize=auto;html=1;entryX=0.5;entryY=0;entryDx=0;entryDy=0;endArrow=none;endFill=0;" edge="1" parent="1" source="2qCFXL-WmAPToWpVcpB8-13" target="2qCFXL-WmAPToWpVcpB8-6">
          <mxGeometry relative="1" as="geometry" />
        </mxCell>
        <mxCell id="2qCFXL-WmAPToWpVcpB8-13" value="ESTA" style="rhombus;whiteSpace=wrap;html=1;" vertex="1" parent="1">
          <mxGeometry x="730.05" y="432" width="80" height="40" as="geometry" />
        </mxCell>
        <mxCell id="2qCFXL-WmAPToWpVcpB8-19" value="" style="ellipse;whiteSpace=wrap;html=1;aspect=fixed;" vertex="1" parent="1">
          <mxGeometry x="115" y="192" width="10" height="10" as="geometry" />
        </mxCell>
        <mxCell id="2qCFXL-WmAPToWpVcpB8-20" style="edgeStyle=orthogonalEdgeStyle;rounded=0;orthogonalLoop=1;jettySize=auto;html=1;entryX=0.038;entryY=0;entryDx=0;entryDy=0;entryPerimeter=0;endArrow=none;endFill=0;" edge="1" parent="1" source="2qCFXL-WmAPToWpVcpB8-19" target="2qCFXL-WmAPToWpVcpB8-1">
          <mxGeometry relative="1" as="geometry" />
        </mxCell>
        <mxCell id="2qCFXL-WmAPToWpVcpB8-21" value="&lt;font style=&quot;font-size: 8px;&quot;&gt;nome&lt;/font&gt;" style="text;html=1;align=center;verticalAlign=middle;resizable=0;points=[];autosize=1;strokeColor=none;fillColor=none;" vertex="1" parent="1">
          <mxGeometry x="100" y="170" width="40" height="30" as="geometry" />
        </mxCell>
        <mxCell id="2qCFXL-WmAPToWpVcpB8-22" value="" style="ellipse;whiteSpace=wrap;html=1;aspect=fixed;" vertex="1" parent="1">
          <mxGeometry x="140" y="192" width="10" height="10" as="geometry" />
        </mxCell>
        <mxCell id="2qCFXL-WmAPToWpVcpB8-23" style="edgeStyle=orthogonalEdgeStyle;rounded=0;orthogonalLoop=1;jettySize=auto;html=1;entryX=0.038;entryY=0;entryDx=0;entryDy=0;entryPerimeter=0;endArrow=none;endFill=0;" edge="1" parent="1" source="2qCFXL-WmAPToWpVcpB8-22">
          <mxGeometry relative="1" as="geometry">
            <mxPoint x="145" y="212" as="targetPoint" />
          </mxGeometry>
        </mxCell>
        <mxCell id="2qCFXL-WmAPToWpVcpB8-24" value="&lt;font style=&quot;font-size: 8px;&quot;&gt;CGC&lt;/font&gt;" style="text;html=1;align=center;verticalAlign=middle;resizable=0;points=[];autosize=1;strokeColor=none;fillColor=none;" vertex="1" parent="1">
          <mxGeometry x="125" y="170" width="40" height="30" as="geometry" />
        </mxCell>
        <mxCell id="2qCFXL-WmAPToWpVcpB8-25" value="" style="ellipse;whiteSpace=wrap;html=1;aspect=fixed;" vertex="1" parent="1">
          <mxGeometry x="175" y="192" width="10" height="10" as="geometry" />
        </mxCell>
        <mxCell id="2qCFXL-WmAPToWpVcpB8-26" style="edgeStyle=orthogonalEdgeStyle;rounded=0;orthogonalLoop=1;jettySize=auto;html=1;entryX=0.038;entryY=0;entryDx=0;entryDy=0;entryPerimeter=0;endArrow=none;endFill=0;" edge="1" parent="1" source="2qCFXL-WmAPToWpVcpB8-25">
          <mxGeometry relative="1" as="geometry">
            <mxPoint x="180" y="212" as="targetPoint" />
          </mxGeometry>
        </mxCell>
        <mxCell id="2qCFXL-WmAPToWpVcpB8-27" value="&lt;font style=&quot;font-size: 8px;&quot;&gt;endereço&lt;/font&gt;" style="text;html=1;align=center;verticalAlign=middle;resizable=0;points=[];autosize=1;strokeColor=none;fillColor=none;" vertex="1" parent="1">
          <mxGeometry x="150" y="170" width="60" height="30" as="geometry" />
        </mxCell>
        <mxCell id="2qCFXL-WmAPToWpVcpB8-28" value="" style="ellipse;whiteSpace=wrap;html=1;aspect=fixed;" vertex="1" parent="1">
          <mxGeometry x="215" y="192" width="10" height="10" as="geometry" />
        </mxCell>
        <mxCell id="2qCFXL-WmAPToWpVcpB8-29" style="edgeStyle=orthogonalEdgeStyle;rounded=0;orthogonalLoop=1;jettySize=auto;html=1;entryX=0.038;entryY=0;entryDx=0;entryDy=0;entryPerimeter=0;endArrow=none;endFill=0;" edge="1" parent="1" source="2qCFXL-WmAPToWpVcpB8-28">
          <mxGeometry relative="1" as="geometry">
            <mxPoint x="220" y="212" as="targetPoint" />
            <Array as="points">
              <mxPoint x="220" y="212" />
            </Array>
          </mxGeometry>
        </mxCell>
        <mxCell id="2qCFXL-WmAPToWpVcpB8-30" value="&lt;font style=&quot;font-size: 8px;&quot;&gt;telefone&lt;/font&gt;" style="text;html=1;align=center;verticalAlign=middle;resizable=0;points=[];autosize=1;strokeColor=none;fillColor=none;" vertex="1" parent="1">
          <mxGeometry x="195" y="170" width="50" height="30" as="geometry" />
        </mxCell>
        <mxCell id="2qCFXL-WmAPToWpVcpB8-1" value="CLIENTE" style="rounded=0;whiteSpace=wrap;html=1;" vertex="1" parent="1">
          <mxGeometry x="115" y="212" width="130" height="30" as="geometry" />
        </mxCell>
        <mxCell id="2qCFXL-WmAPToWpVcpB8-35" value="" style="ellipse;whiteSpace=wrap;html=1;aspect=fixed;" vertex="1" parent="1">
          <mxGeometry x="415" y="192" width="10" height="10" as="geometry" />
        </mxCell>
        <mxCell id="2qCFXL-WmAPToWpVcpB8-36" style="edgeStyle=orthogonalEdgeStyle;rounded=0;orthogonalLoop=1;jettySize=auto;html=1;entryX=0.038;entryY=0;entryDx=0;entryDy=0;entryPerimeter=0;endArrow=none;endFill=0;" edge="1" source="2qCFXL-WmAPToWpVcpB8-35" parent="1">
          <mxGeometry relative="1" as="geometry">
            <mxPoint x="420" y="212" as="targetPoint" />
          </mxGeometry>
        </mxCell>
        <mxCell id="2qCFXL-WmAPToWpVcpB8-37" value="&lt;font style=&quot;font-size: 8px;&quot;&gt;numero&lt;/font&gt;" style="text;html=1;align=center;verticalAlign=middle;resizable=0;points=[];autosize=1;strokeColor=none;fillColor=none;" vertex="1" parent="1">
          <mxGeometry x="395" y="170" width="50" height="30" as="geometry" />
        </mxCell>
        <mxCell id="2qCFXL-WmAPToWpVcpB8-41" value="" style="ellipse;whiteSpace=wrap;html=1;aspect=fixed;" vertex="1" parent="1">
          <mxGeometry x="445" y="192" width="10" height="10" as="geometry" />
        </mxCell>
        <mxCell id="2qCFXL-WmAPToWpVcpB8-42" style="edgeStyle=orthogonalEdgeStyle;rounded=0;orthogonalLoop=1;jettySize=auto;html=1;entryX=0.038;entryY=0;entryDx=0;entryDy=0;entryPerimeter=0;endArrow=none;endFill=0;" edge="1" source="2qCFXL-WmAPToWpVcpB8-41" parent="1">
          <mxGeometry relative="1" as="geometry">
            <mxPoint x="450" y="212" as="targetPoint" />
          </mxGeometry>
        </mxCell>
        <mxCell id="2qCFXL-WmAPToWpVcpB8-43" value="&lt;font style=&quot;font-size: 8px;&quot;&gt;data&lt;/font&gt;" style="text;html=1;align=center;verticalAlign=middle;resizable=0;points=[];autosize=1;strokeColor=none;fillColor=none;" vertex="1" parent="1">
          <mxGeometry x="430" y="170" width="40" height="30" as="geometry" />
        </mxCell>
        <mxCell id="2qCFXL-WmAPToWpVcpB8-76" style="edgeStyle=orthogonalEdgeStyle;rounded=0;orthogonalLoop=1;jettySize=auto;html=1;endArrow=none;endFill=0;" edge="1" parent="1" source="2qCFXL-WmAPToWpVcpB8-4">
          <mxGeometry relative="1" as="geometry">
            <mxPoint x="475" y="292" as="targetPoint" />
          </mxGeometry>
        </mxCell>
        <mxCell id="2qCFXL-WmAPToWpVcpB8-4" value="PEDIDO" style="rounded=0;whiteSpace=wrap;html=1;" vertex="1" parent="1">
          <mxGeometry x="415" y="212" width="120" height="30" as="geometry" />
        </mxCell>
        <mxCell id="2qCFXL-WmAPToWpVcpB8-47" value="" style="ellipse;whiteSpace=wrap;html=1;aspect=fixed;" vertex="1" parent="1">
          <mxGeometry x="715" y="332" width="10" height="10" as="geometry" />
        </mxCell>
        <mxCell id="2qCFXL-WmAPToWpVcpB8-48" style="edgeStyle=orthogonalEdgeStyle;rounded=0;orthogonalLoop=1;jettySize=auto;html=1;entryX=0.038;entryY=0;entryDx=0;entryDy=0;entryPerimeter=0;endArrow=none;endFill=0;" edge="1" source="2qCFXL-WmAPToWpVcpB8-47" parent="1">
          <mxGeometry relative="1" as="geometry">
            <mxPoint x="720" y="352" as="targetPoint" />
          </mxGeometry>
        </mxCell>
        <mxCell id="2qCFXL-WmAPToWpVcpB8-49" value="&lt;font style=&quot;font-size: 8px;&quot;&gt;codigo&lt;/font&gt;" style="text;html=1;align=center;verticalAlign=middle;resizable=0;points=[];autosize=1;strokeColor=none;fillColor=none;" vertex="1" parent="1">
          <mxGeometry x="695" y="310" width="50" height="30" as="geometry" />
        </mxCell>
        <mxCell id="2qCFXL-WmAPToWpVcpB8-50" value="" style="ellipse;whiteSpace=wrap;html=1;aspect=fixed;" vertex="1" parent="1">
          <mxGeometry x="745.05" y="332" width="10" height="10" as="geometry" />
        </mxCell>
        <mxCell id="2qCFXL-WmAPToWpVcpB8-51" style="edgeStyle=orthogonalEdgeStyle;rounded=0;orthogonalLoop=1;jettySize=auto;html=1;entryX=0.038;entryY=0;entryDx=0;entryDy=0;entryPerimeter=0;endArrow=none;endFill=0;" edge="1" source="2qCFXL-WmAPToWpVcpB8-50" parent="1">
          <mxGeometry relative="1" as="geometry">
            <mxPoint x="750.05" y="352" as="targetPoint" />
            <Array as="points">
              <mxPoint x="750" y="352" />
              <mxPoint x="750" y="352" />
            </Array>
          </mxGeometry>
        </mxCell>
        <mxCell id="2qCFXL-WmAPToWpVcpB8-52" value="&lt;font style=&quot;font-size: 8px;&quot;&gt;desc.&lt;/font&gt;" style="text;html=1;align=center;verticalAlign=middle;resizable=0;points=[];autosize=1;strokeColor=none;fillColor=none;" vertex="1" parent="1">
          <mxGeometry x="730.05" y="310" width="40" height="30" as="geometry" />
        </mxCell>
        <mxCell id="2qCFXL-WmAPToWpVcpB8-53" value="" style="ellipse;whiteSpace=wrap;html=1;aspect=fixed;" vertex="1" parent="1">
          <mxGeometry x="775" y="332" width="10" height="10" as="geometry" />
        </mxCell>
        <mxCell id="2qCFXL-WmAPToWpVcpB8-54" style="edgeStyle=orthogonalEdgeStyle;rounded=0;orthogonalLoop=1;jettySize=auto;html=1;entryX=0.038;entryY=0;entryDx=0;entryDy=0;entryPerimeter=0;endArrow=none;endFill=0;" edge="1" source="2qCFXL-WmAPToWpVcpB8-53" parent="1">
          <mxGeometry relative="1" as="geometry">
            <mxPoint x="780" y="352" as="targetPoint" />
          </mxGeometry>
        </mxCell>
        <mxCell id="2qCFXL-WmAPToWpVcpB8-55" value="&lt;font style=&quot;font-size: 8px;&quot;&gt;qtde&lt;/font&gt;" style="text;html=1;align=center;verticalAlign=middle;resizable=0;points=[];autosize=1;strokeColor=none;fillColor=none;" vertex="1" parent="1">
          <mxGeometry x="760" y="310" width="40" height="30" as="geometry" />
        </mxCell>
        <mxCell id="2qCFXL-WmAPToWpVcpB8-5" value="PRODUTO" style="rounded=0;whiteSpace=wrap;html=1;" vertex="1" parent="1">
          <mxGeometry x="710.05" y="352" width="120" height="30" as="geometry" />
        </mxCell>
        <mxCell id="2qCFXL-WmAPToWpVcpB8-56" value="" style="ellipse;whiteSpace=wrap;html=1;aspect=fixed;" vertex="1" parent="1">
          <mxGeometry x="810" y="332" width="10" height="10" as="geometry" />
        </mxCell>
        <mxCell id="2qCFXL-WmAPToWpVcpB8-57" style="edgeStyle=orthogonalEdgeStyle;rounded=0;orthogonalLoop=1;jettySize=auto;html=1;entryX=0.038;entryY=0;entryDx=0;entryDy=0;entryPerimeter=0;endArrow=none;endFill=0;" edge="1" source="2qCFXL-WmAPToWpVcpB8-56" parent="1">
          <mxGeometry relative="1" as="geometry">
            <mxPoint x="815" y="352" as="targetPoint" />
            <Array as="points">
              <mxPoint x="815" y="352" />
            </Array>
          </mxGeometry>
        </mxCell>
        <mxCell id="2qCFXL-WmAPToWpVcpB8-58" value="&lt;font style=&quot;font-size: 8px;&quot;&gt;data_entrega&lt;/font&gt;" style="text;html=1;align=center;verticalAlign=middle;resizable=0;points=[];autosize=1;strokeColor=none;fillColor=none;" vertex="1" parent="1">
          <mxGeometry x="780" y="310" width="70" height="30" as="geometry" />
        </mxCell>
        <mxCell id="2qCFXL-WmAPToWpVcpB8-60" value="" style="ellipse;whiteSpace=wrap;html=1;aspect=fixed;" vertex="1" parent="1">
          <mxGeometry x="735.05" y="562" width="10" height="10" as="geometry" />
        </mxCell>
        <mxCell id="2qCFXL-WmAPToWpVcpB8-61" style="edgeStyle=orthogonalEdgeStyle;rounded=0;orthogonalLoop=1;jettySize=auto;html=1;endArrow=none;endFill=0;" edge="1" source="2qCFXL-WmAPToWpVcpB8-60" parent="1">
          <mxGeometry relative="1" as="geometry">
            <mxPoint x="730" y="552" as="targetPoint" />
            <Array as="points">
              <mxPoint x="740" y="552" />
            </Array>
          </mxGeometry>
        </mxCell>
        <mxCell id="2qCFXL-WmAPToWpVcpB8-62" value="&lt;font style=&quot;font-size: 8px;&quot;&gt;nome&lt;/font&gt;" style="text;html=1;align=center;verticalAlign=middle;resizable=0;points=[];autosize=1;strokeColor=none;fillColor=none;" vertex="1" parent="1">
          <mxGeometry x="720.05" y="572" width="40" height="30" as="geometry" />
        </mxCell>
        <mxCell id="2qCFXL-WmAPToWpVcpB8-65" value="" style="ellipse;whiteSpace=wrap;html=1;aspect=fixed;" vertex="1" parent="1">
          <mxGeometry x="790" y="562" width="10" height="10" as="geometry" />
        </mxCell>
        <mxCell id="2qCFXL-WmAPToWpVcpB8-66" style="edgeStyle=orthogonalEdgeStyle;rounded=0;orthogonalLoop=1;jettySize=auto;html=1;endArrow=none;endFill=0;" edge="1" parent="1" source="2qCFXL-WmAPToWpVcpB8-65">
          <mxGeometry relative="1" as="geometry">
            <mxPoint x="784.95" y="552" as="targetPoint" />
            <Array as="points">
              <mxPoint x="795" y="552" />
            </Array>
          </mxGeometry>
        </mxCell>
        <mxCell id="2qCFXL-WmAPToWpVcpB8-67" value="&lt;font style=&quot;font-size: 8px;&quot;&gt;localização&lt;/font&gt;" style="text;html=1;align=center;verticalAlign=middle;resizable=0;points=[];autosize=1;strokeColor=none;fillColor=none;" vertex="1" parent="1">
          <mxGeometry x="765" y="572" width="60" height="30" as="geometry" />
        </mxCell>
        <mxCell id="2qCFXL-WmAPToWpVcpB8-68" value="n" style="text;html=1;align=center;verticalAlign=middle;resizable=0;points=[];autosize=1;strokeColor=none;fillColor=none;" vertex="1" parent="1">
          <mxGeometry x="385" y="200" width="30" height="30" as="geometry" />
        </mxCell>
        <mxCell id="2qCFXL-WmAPToWpVcpB8-69" value="1" style="text;html=1;align=center;verticalAlign=middle;resizable=0;points=[];autosize=1;strokeColor=none;fillColor=none;" vertex="1" parent="1">
          <mxGeometry x="240" y="200" width="30" height="30" as="geometry" />
        </mxCell>
        <mxCell id="2qCFXL-WmAPToWpVcpB8-70" value="1" style="text;html=1;align=center;verticalAlign=middle;resizable=0;points=[];autosize=1;strokeColor=none;fillColor=none;" vertex="1" parent="1">
          <mxGeometry x="680.05" y="342" width="30" height="30" as="geometry" />
        </mxCell>
        <mxCell id="2qCFXL-WmAPToWpVcpB8-72" value="n" style="text;html=1;align=center;verticalAlign=middle;resizable=0;points=[];autosize=1;strokeColor=none;fillColor=none;" vertex="1" parent="1">
          <mxGeometry x="770" y="492" width="30" height="30" as="geometry" />
        </mxCell>
        <mxCell id="2qCFXL-WmAPToWpVcpB8-73" value="n" style="text;html=1;align=center;verticalAlign=middle;resizable=0;points=[];autosize=1;strokeColor=none;fillColor=none;" vertex="1" parent="1">
          <mxGeometry x="770" y="382" width="30" height="30" as="geometry" />
        </mxCell>
        <mxCell id="2qCFXL-WmAPToWpVcpB8-80" style="edgeStyle=orthogonalEdgeStyle;rounded=0;orthogonalLoop=1;jettySize=auto;html=1;endArrow=none;endFill=0;" edge="1" parent="1" source="2qCFXL-WmAPToWpVcpB8-77" target="2qCFXL-WmAPToWpVcpB8-7">
          <mxGeometry relative="1" as="geometry" />
        </mxCell>
        <mxCell id="2qCFXL-WmAPToWpVcpB8-77" value="ITEM" style="rounded=0;whiteSpace=wrap;html=1;" vertex="1" parent="1">
          <mxGeometry x="415" y="352" width="120" height="30" as="geometry" />
        </mxCell>
        <mxCell id="2qCFXL-WmAPToWpVcpB8-79" style="edgeStyle=orthogonalEdgeStyle;rounded=0;orthogonalLoop=1;jettySize=auto;html=1;endArrow=none;endFill=0;" edge="1" parent="1" source="2qCFXL-WmAPToWpVcpB8-78" target="2qCFXL-WmAPToWpVcpB8-77">
          <mxGeometry relative="1" as="geometry" />
        </mxCell>
        <mxCell id="2qCFXL-WmAPToWpVcpB8-78" value="COMPOEM" style="rhombus;whiteSpace=wrap;html=1;" vertex="1" parent="1">
          <mxGeometry x="435" y="275" width="80" height="45" as="geometry" />
        </mxCell>
        <mxCell id="2qCFXL-WmAPToWpVcpB8-81" value="1" style="text;html=1;align=center;verticalAlign=middle;resizable=0;points=[];autosize=1;strokeColor=none;fillColor=none;" vertex="1" parent="1">
          <mxGeometry x="534" y="340" width="30" height="30" as="geometry" />
        </mxCell>
        <mxCell id="2qCFXL-WmAPToWpVcpB8-82" value="1,n" style="text;html=1;align=center;verticalAlign=middle;resizable=0;points=[];autosize=1;strokeColor=none;fillColor=none;" vertex="1" parent="1">
          <mxGeometry x="470" y="328" width="40" height="30" as="geometry" />
        </mxCell>
        <mxCell id="2qCFXL-WmAPToWpVcpB8-83" value="n" style="text;html=1;align=center;verticalAlign=middle;resizable=0;points=[];autosize=1;strokeColor=none;fillColor=none;" vertex="1" parent="1">
          <mxGeometry x="473" y="238" width="30" height="30" as="geometry" />
        </mxCell>
      </root>
    </mxGraphModel>
  </diagram>
</mxfile>
